<?xml version="1.0" encoding="UTF-8" standalone="no"?>
<!-- Created with Inkscape (http://www.inkscape.org/) -->

<svg
   width="128"
   height="128"
   viewBox="0 0 33.866666 33.866666"
   version="1.1"
   id="svg18372"
   inkscape:version="1.2.1 (9c6d41e410, 2022-07-14)"
   sodipodi:docname="drawing.svg"
   inkscape:export-filename="drawing.png"
   inkscape:export-xdpi="96"
   inkscape:export-ydpi="96"
   xmlns:inkscape="http://www.inkscape.org/namespaces/inkscape"
   xmlns:sodipodi="http://sodipodi.sourceforge.net/DTD/sodipodi-0.dtd"
   xmlns="http://www.w3.org/2000/svg"
   xmlns:svg="http://www.w3.org/2000/svg">
  <sodipodi:namedview
     id="namedview18374"
     pagecolor="#ffffff"
     bordercolor="#666666"
     borderopacity="1.0"
     inkscape:showpageshadow="2"
     inkscape:pageopacity="0.0"
     inkscape:pagecheckerboard="0"
     inkscape:deskcolor="#d1d1d1"
     inkscape:document-units="mm"
     showgrid="false"
     inkscape:zoom="4.5854319"
     inkscape:cx="88.323197"
     inkscape:cy="59.8635"
     inkscape:window-width="1916"
     inkscape:window-height="1039"
     inkscape:window-x="0"
     inkscape:window-y="20"
     inkscape:window-maximized="1"
     inkscape:current-layer="layer1" />
  <defs
     id="defs18369">
    <inkscape:path-effect
       effect="powerstroke"
       id="path-effect18684"
       is_visible="true"
       lpeversion="1"
       offset_points="1.1761377,0.28850426"
       not_jump="true"
       sort_points="true"
       interpolator_type="CentripetalCatmullRom"
       interpolator_beta="0.75"
       start_linecap_type="round"
       linejoin_type="spiro"
       miter_limit="4"
       scale_width="1"
       end_linecap_type="round" />
    <inkscape:path-effect
       effect="simplify"
       id="path-effect18682"
       is_visible="true"
       lpeversion="1"
       steps="1"
       threshold="0.0032025118"
       smooth_angles="0"
       helper_size="0"
       simplify_individual_paths="false"
       simplify_just_coalesce="false"
       step="1" />
    <inkscape:path-effect
       effect="powerstroke"
       id="path-effect18677"
       is_visible="true"
       lpeversion="1"
       offset_points="0.90884603,0.28850426"
       not_jump="true"
       sort_points="true"
       interpolator_type="CentripetalCatmullRom"
       interpolator_beta="0.75"
       start_linecap_type="round"
       linejoin_type="spiro"
       miter_limit="4"
       scale_width="1"
       end_linecap_type="round" />
    <inkscape:path-effect
       effect="simplify"
       id="path-effect18675"
       is_visible="true"
       lpeversion="1"
       steps="1"
       threshold="0.0032025118"
       smooth_angles="0"
       helper_size="0"
       simplify_individual_paths="false"
       simplify_just_coalesce="false"
       step="1" />
    <inkscape:path-effect
       effect="powerstroke"
       id="path-effect18670"
       is_visible="true"
       lpeversion="1"
       offset_points="0.73109124,0.28850426"
       not_jump="true"
       sort_points="true"
       interpolator_type="CentripetalCatmullRom"
       interpolator_beta="0.75"
       start_linecap_type="round"
       linejoin_type="spiro"
       miter_limit="4"
       scale_width="1"
       end_linecap_type="round" />
    <inkscape:path-effect
       effect="simplify"
       id="path-effect18668"
       is_visible="true"
       lpeversion="1"
       steps="1"
       threshold="0.0032025118"
       smooth_angles="0"
       helper_size="0"
       simplify_individual_paths="false"
       simplify_just_coalesce="false"
       step="1" />
    <inkscape:path-effect
       effect="powerstroke"
       id="path-effect18663"
       is_visible="true"
       lpeversion="1"
       offset_points="0.64750051,0.28850426"
       not_jump="true"
       sort_points="true"
       interpolator_type="CentripetalCatmullRom"
       interpolator_beta="0.75"
       start_linecap_type="round"
       linejoin_type="spiro"
       miter_limit="4"
       scale_width="1"
       end_linecap_type="round" />
    <inkscape:path-effect
       effect="simplify"
       id="path-effect18661"
       is_visible="true"
       lpeversion="1"
       steps="1"
       threshold="0.0032025118"
       smooth_angles="0"
       helper_size="0"
       simplify_individual_paths="false"
       simplify_just_coalesce="false"
       step="1" />
    <inkscape:path-effect
       effect="powerstroke"
       id="path-effect18656"
       is_visible="true"
       lpeversion="1"
       offset_points="1.2806947,0.28850426"
       not_jump="true"
       sort_points="true"
       interpolator_type="CentripetalCatmullRom"
       interpolator_beta="0.75"
       start_linecap_type="round"
       linejoin_type="spiro"
       miter_limit="4"
       scale_width="1"
       end_linecap_type="round" />
    <inkscape:path-effect
       effect="simplify"
       id="path-effect18654"
       is_visible="true"
       lpeversion="1"
       steps="1"
       threshold="0.0032025118"
       smooth_angles="0"
       helper_size="0"
       simplify_individual_paths="false"
       simplify_just_coalesce="false"
       step="1" />
    <inkscape:path-effect
       effect="powerstroke"
       id="path-effect18649"
       is_visible="true"
       lpeversion="1"
       offset_points="1.2779686,0.28850426"
       not_jump="true"
       sort_points="true"
       interpolator_type="CentripetalCatmullRom"
       interpolator_beta="0.75"
       start_linecap_type="round"
       linejoin_type="spiro"
       miter_limit="4"
       scale_width="1"
       end_linecap_type="round" />
    <inkscape:path-effect
       effect="simplify"
       id="path-effect18647"
       is_visible="true"
       lpeversion="1"
       steps="1"
       threshold="0.0032025118"
       smooth_angles="0"
       helper_size="0"
       simplify_individual_paths="false"
       simplify_just_coalesce="false"
       step="1" />
    <inkscape:path-effect
       effect="powerstroke"
       id="path-effect18642"
       is_visible="true"
       lpeversion="1"
       offset_points="2.6705228,0.28850426"
       not_jump="true"
       sort_points="true"
       interpolator_type="CentripetalCatmullRom"
       interpolator_beta="0.75"
       start_linecap_type="round"
       linejoin_type="spiro"
       miter_limit="4"
       scale_width="1"
       end_linecap_type="round" />
    <inkscape:path-effect
       effect="simplify"
       id="path-effect18640"
       is_visible="true"
       lpeversion="1"
       steps="1"
       threshold="0.0032025118"
       smooth_angles="0"
       helper_size="0"
       simplify_individual_paths="false"
       simplify_just_coalesce="false"
       step="1" />
    <inkscape:path-effect
       effect="powerstroke"
       id="path-effect18635"
       is_visible="true"
       lpeversion="1"
       offset_points="2.2367469,0.28850426"
       not_jump="true"
       sort_points="true"
       interpolator_type="CentripetalCatmullRom"
       interpolator_beta="0.75"
       start_linecap_type="round"
       linejoin_type="spiro"
       miter_limit="4"
       scale_width="1"
       end_linecap_type="round" />
    <inkscape:path-effect
       effect="simplify"
       id="path-effect18633"
       is_visible="true"
       lpeversion="1"
       steps="1"
       threshold="0.0032025118"
       smooth_angles="0"
       helper_size="0"
       simplify_individual_paths="false"
       simplify_just_coalesce="false"
       step="1" />
    <inkscape:path-effect
       effect="powerstroke"
       id="path-effect18626"
       is_visible="true"
       lpeversion="1"
       offset_points="1.3048967,0.28850426"
       not_jump="true"
       sort_points="true"
       interpolator_type="CentripetalCatmullRom"
       interpolator_beta="0.75"
       start_linecap_type="round"
       linejoin_type="spiro"
       miter_limit="4"
       scale_width="1"
       end_linecap_type="round" />
    <inkscape:path-effect
       effect="simplify"
       id="path-effect18624"
       is_visible="true"
       lpeversion="1"
       steps="1"
       threshold="0.0032025118"
       smooth_angles="0"
       helper_size="0"
       simplify_individual_paths="false"
       simplify_just_coalesce="false"
       step="1" />
  </defs>
  <g
     inkscape:label="Layer 1"
     inkscape:groupmode="layer"
     id="layer1">
    <circle
       style="fill:#ffac74;stroke-width:0.13;stroke-dasharray:0.13, 0.13;stroke-opacity:0.882353;paint-order:stroke markers fill"
       id="path18545"
       cx="16.661816"
       cy="15.877473"
       r="13.240719" />
    <ellipse
       style="fill:#000000;stroke-width:0.13;stroke-dasharray:0.13, 0.13;stroke-opacity:0.882353;paint-order:stroke markers fill"
       id="path18547"
       cx="10.660819"
       cy="10.579747"
       rx="1.6374862"
       ry="1.7318109" />
    <ellipse
       style="fill:#000000;stroke-width:0.13;stroke-dasharray:0.13, 0.13;stroke-opacity:0.882353;paint-order:stroke markers fill"
       id="path18547-3"
       cx="21.407017"
       cy="11.251666"
       rx="1.6374862"
       ry="1.7318109" />
    <path
       d="m 7.5770037,21.463506 c 0.3960489,0.540367 1.0673929,1.422895 1.8946281,2.256219 0.6141102,0.618631 1.3886902,1.288874 2.3315032,1.839803 0.559686,0.328248 1.210628,0.612684 1.927575,0.788159 0.637625,0.156062 1.330718,0.226352 2.045161,0.157454 1.247161,0.239432 2.577299,0.194775 3.862508,-0.150207 0.429786,-0.115365 0.853533,-0.26413 1.265412,-0.44644 0.735149,-0.325398 1.487925,-0.782554 2.177425,-1.403422 0.531182,-0.468077 1.033345,-1.058449 1.505691,-1.793445 0.338019,-0.366204 0.604491,-0.824637 0.749884,-1.337057 0.139203,-0.490602 0.167197,-1.034929 0.02408,-1.571232 -0.06791,-0.285762 -0.185426,-0.571591 -0.343771,-0.836359 -0.155311,-0.259696 -0.350665,-0.500328 -0.579556,-0.706819 -0.225149,-0.203117 -0.484035,-0.374288 -0.769344,-0.496194 -0.281634,-0.120335 -0.589161,-0.192654 -0.912984,-0.199083 -0.246212,-0.0073 -0.487775,0.0258 -0.718868,0.09122 -0.228626,0.06472 -0.445821,0.160761 -0.64931,0.279378 -0.400211,0.233289 -0.749766,0.555279 -1.03299,0.904346 -0.471578,0.53553 -1.068363,0.953989 -1.730365,1.234858 -0.662711,0.28117 -1.385352,0.422089 -2.102937,0.407029 -0.780395,-0.0076 -1.550199,-0.18571 -2.25343,-0.504754 -0.711963,-0.323007 -1.350465,-0.787899 -1.861906,-1.360776 -0.0062,-0.007 -0.01276,-0.01361 -0.01961,-0.01993 -0.472353,-0.435688 -1.052866,-0.700442 -1.648125,-0.823895 -0.612482,-0.127024 -1.2467578,-0.106396 -1.8252445,0.03344 -0.403817,0.09588 -0.8024866,0.279404 -1.1266288,0.541215 -0.1685774,0.136161 -0.3177225,0.294013 -0.4380283,0.472853 -0.1241673,0.184581 -0.2161203,0.389325 -0.2677732,0.611933 -0.047407,0.198183 -0.061414,0.393952 -0.053037,0.581115 0.0087,0.194316 0.041603,0.381014 0.087032,0.555839 0.096154,0.370024 0.2575414,0.718303 0.3974281,0.996327 0.0016,0.0032 0.00325,0.0063 0.00496,0.0094 0.1458915,0.265097 0.2979976,0.463109 0.4199536,0.602213 A 0.28850426,0.28850426 90 0 0 8.3702171,21.79633 C 8.271561,21.683803 8.1461364,21.521138 8.0244373,21.300897 7.8899576,21.03328 7.7523203,20.730948 7.6724606,20.423629 c -0.037466,-0.144177 -0.062518,-0.290318 -0.069062,-0.43652 -0.00628,-0.140222 0.00441,-0.281553 0.038234,-0.422991 0.035384,-0.152467 0.097814,-0.292721 0.1849081,-0.422191 0.084785,-0.126038 0.1931959,-0.242147 0.3218247,-0.346041 0.2493934,-0.201436 0.5672193,-0.350302 0.8985051,-0.428963 0.5010455,-0.121112 1.0489228,-0.138401 1.5736348,-0.02958 0.504908,0.104714 0.981854,0.325049 1.364179,0.673956 0.564978,0.629705 1.265981,1.138035 2.044244,1.491121 0.773094,0.35074 1.621947,0.547889 2.482975,0.556226 0.796931,0.01674 1.600426,-0.140212 2.337148,-0.452783 0.738096,-0.313154 1.409099,-0.782488 1.942255,-1.389493 0.0026,-0.0029 0.0051,-0.0059 0.0075,-0.0089 0.248771,-0.30746 0.548345,-0.580844 0.878797,-0.77347 0.166409,-0.097 0.339042,-0.172618 0.515904,-0.222688 0.178327,-0.05049 0.361165,-0.07508 0.547455,-0.06958 0.247185,0.0049 0.48188,0.05945 0.700509,0.15286 0.222001,0.09486 0.427652,0.229922 0.609553,0.394022 0.184946,0.166847 0.34406,0.362534 0.470854,0.574546 0.129261,0.216138 0.223857,0.447363 0.279564,0.681392 0.114979,0.431282 0.0948,0.868761 -0.01977,1.272539 -0.121961,0.429836 -0.348775,0.815706 -0.634011,1.119552 -0.01219,0.01298 -0.02314,0.02706 -0.03273,0.04206 -0.451729,0.706585 -0.924655,1.261201 -1.417535,1.695547 -0.641375,0.57751 -1.341107,1.002963 -2.027171,1.306636 -0.384212,0.170063 -0.779859,0.308991 -1.181455,0.41679 -1.215555,0.326285 -2.471895,0.364496 -3.643574,0.133147 -0.02824,-0.0056 -0.05717,-0.0069 -0.08579,-0.0039 -0.655215,0.06829 -1.29613,0.0061 -1.891537,-0.139668 C 13.211835,25.62665 12.612649,25.365373 12.094647,25.061572 11.207539,24.543194 10.472202,23.908638 9.8811318,23.313217 9.0843911,22.510612 8.433077,21.655449 8.0423963,21.122408 a 0.28850426,0.28850426 90 0 0 -0.4653926,0.341098 z"
       id="path-1"
       inkscape:path-effect="#path-effect18640;#path-effect18642"
       inkscape:original-d="m 7.8097,21.292957 c 1.8566894,2.550054 4.552068,5.252334 7.97963,4.920883 3.305977,0.637834 6.772873,-0.765016 8.540081,-3.648524 2.465246,-2.660436 -1.059378,-6.626773 -3.652925,-3.656729 -2.147171,2.546459 -6.079273,2.396674 -8.327636,0.066 -1.605999,-1.855827 -6.0627459,-1.073021 -4.82064,1.918681 0.1392521,0.398174 0.3463601,0.775316 0.6250714,1.093256"
       style="fill:#000000;fill-rule:nonzero;stroke:none;stroke-width:1px;stroke-linecap:butt;stroke-linejoin:miter;stroke-opacity:1" />
    <path
       d="m 12.460413,25.24605 c -0.0202,-0.210451 -0.03359,-0.58971 0.08548,-1.020738 0.07765,-0.281101 0.217109,-0.601507 0.460966,-0.887892 0.06372,-0.07716 0.133014,-0.150409 0.211857,-0.222339 0.153892,-0.140398 0.366976,-0.296525 0.661761,-0.441689 0.01074,-0.0044 0.0223,-0.0096 0.0342,-0.01566 0.01728,-0.0089 0.04129,-0.02279 0.06599,-0.04365 0.02399,-0.02025 0.05716,-0.05421 0.08105,-0.105228 0.01206,-0.02575 0.02119,-0.05471 0.02555,-0.08623 0.0043,-0.03129 0.0035,-0.06174 -0.0012,-0.0903 -0.0092,-0.05547 -0.03109,-0.09551 -0.04933,-0.122202 -0.01706,-0.02496 -0.0346,-0.04283 -0.04551,-0.05317 -0.02352,-0.0223 -0.03562,-0.03001 -0.03917,-0.03274 -0.0034,-0.0027 0.0016,-7.46e-4 0.01957,0.01866 0.0081,0.0087 0.02154,0.02462 0.03438,0.04764 0.01305,0.02339 0.02724,0.05741 0.03203,0.100505 0.0049,0.04423 -0.0012,0.08794 -0.01647,0.127286 -0.01437,0.03715 -0.0342,0.06382 -0.04978,0.0809 -0.01523,0.01669 -0.02906,0.02717 -0.0369,0.0326 -0.008,0.0056 -0.01354,0.0084 -0.01465,0.009 l 0.04232,-0.0263 c 0.08032,-0.06013 0.175564,-0.110665 0.293174,-0.160773 0.109667,-0.04672 0.23501,-0.09075 0.369461,-0.14315 0.129588,-0.04854 0.263964,-0.09192 0.398665,-0.121946 0.130812,-0.02916 0.260802,-0.04547 0.390056,-0.04351 0.252702,-0.0033 0.492533,0.01388 0.760239,0.02778 0.255848,0.01328 0.528536,0.02282 0.805817,-0.0018 0.24104,-0.0121 0.458829,-0.02825 0.675993,-0.01975 0.107236,0.0042 0.209107,0.0144 0.306224,0.03321 0.09736,0.01886 0.18938,0.04627 0.276655,0.0846 0.005,0.0022 0.0101,0.0043 0.01523,0.0062 0.646658,0.241101 1.245897,0.536013 1.777536,0.904286 0.132745,0.117553 0.244968,0.259273 0.348155,0.415156 0.110994,0.167678 0.210973,0.351036 0.311538,0.531068 0.115803,0.223915 0.22918,0.425696 0.315906,0.604117 0.0077,0.02284 0.01403,0.0498 0.01988,0.08266 0.0076,0.04255 0.01294,0.08651 0.02051,0.138764 0.0084,0.05778 0.01843,0.117689 0.03497,0.179343 0.02008,0.07485 0.04758,0.14388 0.08522,0.208459 a 0.28850426,0.28850426 90 0 0 0.4985,-0.29058 c -0.0085,-0.01455 -0.01773,-0.03501 -0.02643,-0.06742 -0.0077,-0.02886 -0.01396,-0.06248 -0.02122,-0.112549 -0.0051,-0.0353 -0.01376,-0.102571 -0.02347,-0.157107 -0.0098,-0.0552 -0.02473,-0.123526 -0.05143,-0.194697 -0.003,-0.0081 -0.0064,-0.01606 -0.0102,-0.02386 -0.09768,-0.202795 -0.218518,-0.417164 -0.334184,-0.640503 -0.09974,-0.178849 -0.212434,-0.385817 -0.338451,-0.57619 -0.122757,-0.185448 -0.271415,-0.376614 -0.462292,-0.542252 -0.0077,-0.0067 -0.01581,-0.013 -0.02421,-0.01885 -0.581097,-0.404691 -1.227737,-0.72231 -1.91136,-0.97774 -0.129209,-0.05599 -0.260373,-0.09404 -0.391138,-0.119363 -0.132447,-0.02565 -0.264432,-0.03825 -0.393373,-0.0433 -0.25226,-0.0099 -0.509761,0.0092 -0.733012,0.02031 -0.0039,1.94e-4 -0.0078,4.66e-4 -0.01163,8.16e-4 -0.235786,0.02133 -0.475824,0.01393 -0.729821,7.39e-4 -0.25255,-0.01311 -0.520654,-0.03214 -0.789688,-0.0285 -0.17527,-0.0028 -0.351109,0.02051 -0.516058,0.05727 -0.169253,0.03772 -0.330557,0.09048 -0.479159,0.146173 -0.124686,0.04857 -0.256739,0.09467 -0.3896,0.151273 -0.135027,0.05753 -0.269895,0.125635 -0.395921,0.217242 -0.0089,0.0052 -0.01797,0.01091 -0.02712,0.01725 -0.01812,0.01254 -0.03986,0.0298 -0.06101,0.05299 -0.02157,0.02364 -0.04536,0.05658 -0.06206,0.09974 -0.01757,0.04541 -0.02442,0.09494 -0.01888,0.144753 0.0054,0.04874 0.02157,0.08819 0.03753,0.116797 0.01579,0.02831 0.03321,0.04931 0.04582,0.06294 0.0234,0.02532 0.04797,0.04366 0.05241,0.04708 0.01328,0.01021 0.0031,0.0028 -0.0061,-0.006 -0.0062,-0.0059 -0.01978,-0.01937 -0.03384,-0.03994 -0.01519,-0.02223 -0.03503,-0.05782 -0.0435,-0.108814 -0.0044,-0.02629 -0.0051,-0.05448 -0.0011,-0.08349 0.004,-0.02922 0.01249,-0.05587 0.02346,-0.07931 0.02169,-0.04632 0.05102,-0.07553 0.0693,-0.09096 0.01888,-0.01594 0.03513,-0.02487 0.0425,-0.02865 0.0089,-0.0046 0.01287,-0.0059 0.01369,-0.0062 l -0.02706,0.01155 c -0.35011,0.170992 -0.611968,0.360324 -0.807796,0.538983 -0.09865,0.09 -0.186745,0.182931 -0.265144,0.277932 -0.308127,0.361811 -0.480711,0.763721 -0.574966,1.104925 -0.144482,0.523024 -0.127698,0.979097 -0.10367,1.229494 a 0.28850426,0.28850426 90 0 0 0.57437,-0.05512 z"
       id="path-1-0"
       inkscape:path-effect="#path-effect18647;#path-effect18649"
       inkscape:original-d="m 12.173228,25.273608 c -0.112137,-1.299378 0.486486,-2.308127 1.500219,-2.815963 0.32614,-0.163382 -0.07686,-0.03095 0.152042,-0.202981 0.192623,-0.144768 0.917174,-0.406798 1.166721,-0.456708 0.474365,-0.09487 1.081163,0 1.568097,0 0.49286,0 1.180719,-0.110409 1.638121,0.05057 0.668364,0.235219 1.324413,0.542175 1.949545,0.958192 0.43811,0.291557 0.868471,1.238143 1.088213,1.630081 0.120124,0.214257 0.0627,0.452344 0.180833,0.657076"
       style="fill:#000000;fill-rule:nonzero;stroke:none;stroke-width:1px;stroke-linecap:butt;stroke-linejoin:miter;stroke-opacity:1" />
    <path
       d="m 13.893656,24.545042 c 0.246523,0.04407 0.793231,0.158598 1.415933,0.273592 0.223831,0.0417 0.455748,0.08484 0.687109,0.126206 0.449245,0.08032 1.112953,0.194102 1.789747,0.260242 0.115382,0.0086 0.262346,0.02168 0.397962,0.02567 0.133488,0.0039 0.279471,4.58e-4 0.429687,-0.02487 0.0802,-0.01134 0.151359,-0.0403 0.211519,-0.07865 0.05843,-0.03725 0.105254,-0.08247 0.141865,-0.128031 0.13714,-0.144953 0.248196,-0.228887 0.323563,-0.279366 a 0.28850426,0.28850426 90 0 0 -0.321092,-0.479414 c -0.109588,0.0734 -0.258011,0.187601 -0.431975,0.373225 -0.0069,0.0073 -0.01333,0.01499 -0.01939,0.02298 -0.0035,0.0046 -0.0058,0.0058 -0.0031,0.0041 0.0029,-0.0019 0.0095,-0.0051 0.01859,-0.0062 l -0.01241,0.0019 c -0.1004,0.01726 -0.206485,0.02102 -0.320228,0.01767 -0.118611,-0.0035 -0.24375,-0.01474 -0.365559,-0.02376 -0.645779,-0.06319 -1.290459,-0.173449 -1.737571,-0.253391 -0.22901,-0.04095 -0.458964,-0.08372 -0.683441,-0.125538 -0.608167,-0.11231 -1.165862,-0.2289 -1.419615,-0.274263 a 0.28850426,0.28850426 90 0 0 -0.101542,0.568004 z"
       id="path-1-7"
       inkscape:path-effect="#path-effect18654;#path-effect18656"
       inkscape:original-d="m 13.944427,24.26104 c 0.379034,0.0538 4.436899,0.950054 4.75582,0.601784 0.150002,-0.163807 0.269974,-0.27383 0.430248,-0.382691"
       style="fill:#000000;fill-rule:nonzero;stroke:none;stroke-width:1px;stroke-linecap:butt;stroke-linejoin:miter;stroke-opacity:1" />
    <path
       d="m 16.211514,22.03317 c -0.0091,0.09461 -0.041,0.401759 -0.04744,0.660436 -0.0025,0.101106 -0.0027,0.232704 0.0077,0.376957 0.02077,0.268837 0.07061,0.457148 0.13437,0.608228 a 0.28850426,0.28850426 90 0 0 0.531604,-0.22436 c -0.03668,-0.0869 -0.07408,-0.213419 -0.09057,-0.426823 -0.0085,-0.11802 -0.0085,-0.229743 -0.0063,-0.319651 0.0058,-0.232985 0.0349,-0.515393 0.04494,-0.619259 a 0.28850426,0.28850426 90 0 0 -0.57433,-0.05553 z"
       id="path-1-8"
       inkscape:path-effect="#path-effect18661;#path-effect18663"
       inkscape:original-d="m 16.498679,22.060934 c -0.04986,0.507587 -0.100882,1.095741 0.07326,1.505677"
       style="fill:#000000;fill-rule:nonzero;stroke:none;stroke-width:1px;stroke-linecap:butt;stroke-linejoin:miter;stroke-opacity:1" />
    <path
       d="m 7.8196016,16.066294 c -0.046271,0.01289 -0.1329,0.0323 -0.2763083,0.02671 -0.044022,-0.0017 -0.092175,-0.0056 -0.1469904,-0.01223 -0.051945,-0.0062 -0.1079874,-0.01455 -0.1828795,-0.02706 -0.081013,-0.0133 -0.270215,-0.04829 -0.4071521,-0.0645 -0.1328796,-0.01573 -0.2966469,-0.02628 -0.4705362,-0.0021 -0.033164,0.0052 -0.1001967,0.01454 -0.1640182,0.03514 -0.033425,0.01079 -0.072051,0.02632 -0.1115164,0.04968 -0.039373,0.02331 -0.079088,0.05413 -0.1149172,0.09481 -0.058272,0.06423 -0.096595,0.137827 -0.1192554,0.181303 -0.027856,0.05344 -0.036771,0.07032 -0.047641,0.08439 -0.00443,0.0057 -0.00865,0.01164 -0.012636,0.0177 -0.058323,0.08855 -0.122806,0.179711 -0.1850334,0.27483 -0.068021,0.103975 -0.1310074,0.209185 -0.183851,0.322776 -0.082626,0.178342 -0.1156667,0.355429 -0.1317434,0.494975 -0.020188,0.175233 -0.019907,0.374467 -0.020502,0.45263 a 0.28850426,0.28850426 90 0 0 0.5769918,0.0044 c 6.826e-4,-0.08961 8.767e-4,-0.253402 0.016728,-0.390988 0.012413,-0.107741 0.035332,-0.21756 0.081885,-0.318042 0.03642,-0.07829 0.083133,-0.157809 0.1433516,-0.249858 0.053297,-0.08147 0.1150948,-0.168981 0.1788973,-0.265522 0.045443,-0.06123 0.077524,-0.126612 0.095231,-0.160585 0.023197,-0.04451 0.032075,-0.05719 0.037813,-0.06352 -0.00607,0.0069 -0.015052,0.0135 -0.021404,0.01726 -0.0061,0.0036 -0.00816,0.0039 -0.00516,0.0029 0.00626,-0.002 0.033214,-0.0074 0.071726,-0.01356 0.098952,-0.01368 0.2077059,-0.0086 0.3177748,0.0044 0.1202255,0.01423 0.2754591,0.04347 0.3807444,0.06075 0.079152,0.01321 0.1445669,0.02304 0.2083395,0.03069 0.067484,0.0081 0.1312823,0.01349 0.1932816,0.0159 0.2116147,0.0083 0.3583646,-0.02089 0.4536628,-0.04744 a 0.28850426,0.28850426 90 0 0 -0.154877,-0.555834 z"
       id="path-1-6"
       inkscape:path-effect="#path-effect18668;#path-effect18670"
       inkscape:original-d="m 7.8970401,16.344211 c -0.5258346,0.14648 -1.1058843,-0.183579 -1.6260096,-0.05075 -0.144023,0.03678 -0.169113,0.173397 -0.2419692,0.282035 -0.3871772,0.577329 -0.4959442,0.673526 -0.4959442,1.422007"
       style="fill:#000000;fill-rule:nonzero;stroke:none;stroke-width:1px;stroke-linecap:butt;stroke-linejoin:miter;stroke-opacity:1" />
    <path
       d="m 24.329365,17.012221 c 0.07358,-0.02288 0.213516,-0.06012 0.384151,-0.0616 0.102026,-8.89e-4 0.20451,0.01108 0.303483,0.03864 0.02039,0.0057 0.04175,0.01233 0.06384,0.02015 0.12044,0.04155 0.248929,0.108698 0.383621,0.215596 0.117787,0.09348 0.227883,0.207532 0.329267,0.335884 0.270652,0.343194 0.4471,0.735822 0.525309,0.915542 a 0.28850426,0.28850426 90 0 0 0.529082,-0.230242 c -0.08037,-0.184691 -0.281205,-0.636689 -0.60146,-1.04278 -0.123748,-0.156665 -0.264598,-0.30426 -0.423497,-0.430369 -0.183576,-0.145694 -0.369322,-0.245333 -0.55195,-0.308325 -0.03318,-0.01176 -0.06721,-0.02235 -0.09945,-0.03132 -0.15638,-0.04354 -0.313159,-0.06106 -0.463274,-0.05976 -0.248895,0.0022 -0.448866,0.05602 -0.550443,0.0876 a 0.28850426,0.28850426 90 0 0 0.17132,0.550988 z"
       id="path-1-88"
       inkscape:path-effect="#path-effect18675;#path-effect18677"
       inkscape:original-d="m 24.243705,16.736727 c 1.23338,-0.37357 1.94982,0.724579 2.339871,1.624576"
       style="fill:#000000;fill-rule:nonzero;stroke:none;stroke-width:1px;stroke-linecap:butt;stroke-linejoin:miter;stroke-opacity:1" />
    <path
       d="m 13.819905,15.616293 c 0.08713,0.125335 0.272374,0.382097 0.528528,0.628569 0.178623,0.171872 0.406467,0.35386 0.686711,0.496297 0.08774,0.04543 0.180588,0.08671 0.276511,0.123111 0.152613,0.05792 0.327008,0.108808 0.527839,0.147017 0.251108,0.04777 0.521217,0.07158 0.817915,0.07427 0.004,3.6e-5 0.008,-10e-6 0.01193,-1.38e-4 0.09135,-0.003 0.171321,0.0068 0.308133,0.01763 0.112482,0.0089 0.259375,0.01744 0.412937,-0.01009 0.0048,-8.68e-4 0.0097,-0.0019 0.01446,-0.003 0.07588,-0.01765 0.144623,-0.04584 0.206593,-0.08009 0.06113,-0.03379 0.115139,-0.07319 0.162741,-0.113492 0.09292,-0.07867 0.171356,-0.169876 0.229893,-0.238099 0.06868,-0.0786 0.124356,-0.151186 0.174014,-0.205608 0.05461,-0.05985 0.09712,-0.09463 0.137368,-0.116427 0.008,-0.004 0.01186,-0.0027 0.01093,-0.0027 a 0.28850426,0.28850426 90 0 0 0.0022,-0.577004 c -0.0715,-2.76e-4 -0.17167,0.01304 -0.281497,0.06898 -0.124844,0.06752 -0.217258,0.152775 -0.295267,0.238269 -0.07193,0.07883 -0.131055,0.156248 -0.183998,0.216848 -0.06302,0.07343 -0.113611,0.13062 -0.166511,0.175406 -0.02515,0.02129 -0.04798,0.03723 -0.06905,0.04888 -0.01849,0.01022 -0.03558,0.01712 -0.05189,0.0215 -0.07339,0.01197 -0.15482,0.0095 -0.257523,0.0014 -0.108331,-0.0086 -0.234829,-0.02296 -0.365813,-0.01932 -0.266894,-0.0027 -0.500133,-0.0242 -0.709748,-0.06407 -0.168292,-0.03202 -0.310242,-0.07383 -0.430956,-0.119644 -0.07607,-0.02887 -0.148655,-0.06121 -0.217891,-0.09705 -0.218392,-0.111009 -0.400494,-0.254842 -0.549983,-0.398681 -0.215392,-0.207252 -0.375229,-0.427633 -0.45482,-0.542129 a 0.28850426,0.28850426 90 0 0 -0.473782,0.329348 z"
       id="path-1-4"
       inkscape:path-effect="#path-effect18682;#path-effect18684"
       inkscape:original-d="m 14.056796,15.451619 c 0.716426,1.025177 1.483953,1.345817 2.672384,1.345817 0.180844,0 0.479195,0.05801 0.653276,0 0.386648,-0.128853 0.58915,-0.752404 0.945066,-0.752404"
       style="fill:#000000;fill-rule:nonzero;stroke:none;stroke-width:1px;stroke-linecap:butt;stroke-linejoin:miter;stroke-opacity:1" />
    <path
       style="fill:#000000;stroke-width:0.107152;stroke-dasharray:0.107152, 0.107152;stroke-opacity:0.882353;paint-order:stroke markers fill"
       d="m 42.525984,92.42794 c -2.718527,-2.012223 -6.725986,-5.985706 -9.308591,-9.22967 -1.193643,-1.499313 -2.472088,-3.057099 -2.84099,-3.461746 -0.368901,-0.404647 -0.852938,-1.321157 -1.075636,-2.036688 -1.006603,-3.234221 -0.08679,-5.749719 2.646363,-7.23729 1.635689,-0.890253 3.097839,-1.216345 5.453927,-1.216345 3.696157,0 5.856809,0.889171 8.697842,3.579414 1.033524,0.978669 2.504991,2.203905 3.269928,2.722748 2.020725,1.370622 5.155104,2.790961 7.599122,3.44353 1.890629,0.50481 2.54004,0.569235 5.730617,0.568512 2.974967,-6.76e-4 3.888338,-0.08007 5.272225,-0.458255 4.342143,-1.186627 7.273736,-2.937695 10.685035,-6.382276 2.589991,-2.615261 3.59415,-3.300803 5.580181,-3.8096 3.780737,-0.96858 7.726247,1.613065 9.228199,6.038237 0.848941,2.501217 0.3096,5.807956 -1.322937,8.111022 -2.476942,3.494287 -3.635514,4.973882 -4.942296,6.31173 -1.531186,1.567589 -3.94965,3.603805 -4.813149,4.052413 -0.437048,0.227056 -0.499559,0.192001 -0.628419,-0.352392 -0.23022,-0.972611 -2.23848,-4.771048 -3.2463,-6.140074 -1.291831,-1.754826 -3.848824,-3.340056 -8.05575,-4.99423 l -1.977617,-0.777605 -5.56109,-0.05522 c -6.155203,-0.06111 -7.199682,0.0704 -9.754803,1.228299 -0.81203,0.367986 -1.770829,0.939897 -2.130665,1.270914 -0.359835,0.331016 -1.205018,1.006149 -1.878184,1.500296 -1.258078,0.923507 -2.416894,2.329889 -3.202648,3.886854 -0.538325,1.066685 -1.134504,3.282432 -1.134504,4.216475 0,0.372511 -0.0736,0.676491 -0.163561,0.675514 -0.08996,-8.73e-4 -1.046794,-0.655533 -2.126299,-1.454572 z"
       id="path18757"
       transform="scale(0.26458333)" />
    <path
       style="fill:#ff2a2a;stroke-width:0.107152;stroke-dasharray:0.107152, 0.107152;stroke-opacity:0.882353;paint-order:stroke markers fill"
       d="M 62.04432,98.236503 C 61.384622,98.124155 59.421884,97.992236 57.68268,97.94335 54.194587,97.84531 51.673536,97.325688 48.845632,96.121933 l -1.521845,-0.647805 0.01976,-1.882109 c 0.0179,-1.704886 0.09459,-2.033519 0.814475,-3.490098 0.862771,-1.745698 2.014952,-2.96251 3.759243,-3.970115 0.592158,-0.342065 1.160749,-0.759541 1.263537,-0.927724 0.254966,-0.417181 2.170994,-1.240163 3.629547,-1.558983 0.659698,-0.1442 1.877393,-0.230125 2.705987,-0.190944 l 1.506537,0.07124 0.03355,2.507943 c 0.04286,3.203746 0.382008,4.143557 1.495265,4.143557 1.170435,0 1.356134,-0.395133 1.020835,-2.172151 -0.27007,-1.431316 -0.20696,-4.019595 0.105632,-4.332187 0.08003,-0.08003 0.901896,-0.179853 1.826377,-0.221836 1.917179,-0.08706 3.860366,0.454724 6.633221,1.849434 2.765757,1.391139 3.772424,2.149123 4.733197,3.563923 1.115507,1.642656 2.572974,4.686799 2.662451,5.560931 0.06011,0.587196 -0.03848,0.700091 -1.023899,1.172467 -1.744686,0.836347 -4.454501,1.718318 -6.782565,2.207542 -2.467214,0.518466 -7.781347,0.75528 -9.682623,0.431487 z m 9.745904,-3.71457 c 1.524589,-1.291755 1.843687,-1.717327 1.686428,-2.249136 -0.164707,-0.556991 -0.698039,-1.005494 -1.195674,-1.005494 -0.201296,0 -0.859014,0.392548 -1.461592,0.872328 -0.971409,0.773447 -1.228021,0.872194 -2.263828,0.871146 -1.557555,-0.0016 -6.240252,-0.700855 -11.612637,-1.734146 -3.966172,-0.762829 -4.433276,-0.812704 -4.888667,-0.521988 -0.69933,0.446443 -0.595112,1.604781 0.176377,1.960367 1.464601,0.675047 13.637153,2.648819 16.506445,2.67651 l 2.003995,0.01934 z"
       id="path18759"
       transform="scale(0.26458333)" />
  </g>
</svg>
