<?xml version="1.0" encoding="UTF-8" standalone="no"?>
<!-- Created with Inkscape (http://www.inkscape.org/) -->

<svg
   width="128"
   height="128"
   viewBox="0 0 33.866666 33.866666"
   version="1.1"
   id="svg18372"
   inkscape:version="1.2.1 (9c6d41e410, 2022-07-14)"
   sodipodi:docname="drawing2.svg"
   inkscape:export-filename="drawing.png"
   inkscape:export-xdpi="96"
   inkscape:export-ydpi="96"
   xmlns:inkscape="http://www.inkscape.org/namespaces/inkscape"
   xmlns:sodipodi="http://sodipodi.sourceforge.net/DTD/sodipodi-0.dtd"
   xmlns="http://www.w3.org/2000/svg"
   xmlns:svg="http://www.w3.org/2000/svg">
  <sodipodi:namedview
     id="namedview18374"
     pagecolor="#ffffff"
     bordercolor="#666666"
     borderopacity="1.0"
     inkscape:showpageshadow="2"
     inkscape:pageopacity="0.0"
     inkscape:pagecheckerboard="0"
     inkscape:deskcolor="#d1d1d1"
     inkscape:document-units="mm"
     showgrid="false"
     inkscape:zoom="4.5854319"
     inkscape:cx="88.323197"
     inkscape:cy="59.8635"
     inkscape:window-width="1916"
     inkscape:window-height="1039"
     inkscape:window-x="0"
     inkscape:window-y="20"
     inkscape:window-maximized="1"
     inkscape:current-layer="layer1" />
  <defs
     id="defs18369">
    <inkscape:path-effect
       effect="powerstroke"
       id="path-effect18684"
       is_visible="true"
       lpeversion="1"
       offset_points="1.1761377,0.28850426"
       not_jump="true"
       sort_points="true"
       interpolator_type="CentripetalCatmullRom"
       interpolator_beta="0.75"
       start_linecap_type="round"
       linejoin_type="spiro"
       miter_limit="4"
       scale_width="1"
       end_linecap_type="round" />
    <inkscape:path-effect
       effect="simplify"
       id="path-effect18682"
       is_visible="true"
       lpeversion="1"
       steps="1"
       threshold="0.0032025118"
       smooth_angles="0"
       helper_size="0"
       simplify_individual_paths="false"
       simplify_just_coalesce="false"
       step="1" />
    <inkscape:path-effect
       effect="powerstroke"
       id="path-effect18677"
       is_visible="true"
       lpeversion="1"
       offset_points="0.90884603,0.28850426"
       not_jump="true"
       sort_points="true"
       interpolator_type="CentripetalCatmullRom"
       interpolator_beta="0.75"
       start_linecap_type="round"
       linejoin_type="spiro"
       miter_limit="4"
       scale_width="1"
       end_linecap_type="round" />
    <inkscape:path-effect
       effect="simplify"
       id="path-effect18675"
       is_visible="true"
       lpeversion="1"
       steps="1"
       threshold="0.0032025118"
       smooth_angles="0"
       helper_size="0"
       simplify_individual_paths="false"
       simplify_just_coalesce="false"
       step="1" />
    <inkscape:path-effect
       effect="powerstroke"
       id="path-effect18670"
       is_visible="true"
       lpeversion="1"
       offset_points="0.73109124,0.28850426"
       not_jump="true"
       sort_points="true"
       interpolator_type="CentripetalCatmullRom"
       interpolator_beta="0.75"
       start_linecap_type="round"
       linejoin_type="spiro"
       miter_limit="4"
       scale_width="1"
       end_linecap_type="round" />
    <inkscape:path-effect
       effect="simplify"
       id="path-effect18668"
       is_visible="true"
       lpeversion="1"
       steps="1"
       threshold="0.0032025118"
       smooth_angles="0"
       helper_size="0"
       simplify_individual_paths="false"
       simplify_just_coalesce="false"
       step="1" />
    <inkscape:path-effect
       effect="powerstroke"
       id="path-effect18663"
       is_visible="true"
       lpeversion="1"
       offset_points="0.64750051,0.28850426"
       not_jump="true"
       sort_points="true"
       interpolator_type="CentripetalCatmullRom"
       interpolator_beta="0.75"
       start_linecap_type="round"
       linejoin_type="spiro"
       miter_limit="4"
       scale_width="1"
       end_linecap_type="round" />
    <inkscape:path-effect
       effect="simplify"
       id="path-effect18661"
       is_visible="true"
       lpeversion="1"
       steps="1"
       threshold="0.0032025118"
       smooth_angles="0"
       helper_size="0"
       simplify_individual_paths="false"
       simplify_just_coalesce="false"
       step="1" />
    <inkscape:path-effect
       effect="powerstroke"
       id="path-effect18656"
       is_visible="true"
       lpeversion="1"
       offset_points="1.2806947,0.28850426"
       not_jump="true"
       sort_points="true"
       interpolator_type="CentripetalCatmullRom"
       interpolator_beta="0.75"
       start_linecap_type="round"
       linejoin_type="spiro"
       miter_limit="4"
       scale_width="1"
       end_linecap_type="round" />
    <inkscape:path-effect
       effect="simplify"
       id="path-effect18654"
       is_visible="true"
       lpeversion="1"
       steps="1"
       threshold="0.0032025118"
       smooth_angles="0"
       helper_size="0"
       simplify_individual_paths="false"
       simplify_just_coalesce="false"
       step="1" />
    <inkscape:path-effect
       effect="powerstroke"
       id="path-effect18649"
       is_visible="true"
       lpeversion="1"
       offset_points="1.2779686,0.30242715"
       not_jump="true"
       sort_points="true"
       interpolator_type="CentripetalCatmullRom"
       interpolator_beta="0.75"
       start_linecap_type="round"
       linejoin_type="spiro"
       miter_limit="4"
       scale_width="1"
       end_linecap_type="round" />
    <inkscape:path-effect
       effect="simplify"
       id="path-effect18647"
       is_visible="true"
       lpeversion="1"
       steps="1"
       threshold="0.0032025118"
       smooth_angles="0"
       helper_size="0"
       simplify_individual_paths="false"
       simplify_just_coalesce="false"
       step="1" />
    <inkscape:path-effect
       effect="powerstroke"
       id="path-effect18642"
       is_visible="true"
       lpeversion="1"
       offset_points="2.6705228,0.28850426"
       not_jump="true"
       sort_points="true"
       interpolator_type="CentripetalCatmullRom"
       interpolator_beta="0.75"
       start_linecap_type="round"
       linejoin_type="spiro"
       miter_limit="4"
       scale_width="1"
       end_linecap_type="round" />
    <inkscape:path-effect
       effect="simplify"
       id="path-effect18640"
       is_visible="true"
       lpeversion="1"
       steps="1"
       threshold="0.0032025118"
       smooth_angles="0"
       helper_size="0"
       simplify_individual_paths="false"
       simplify_just_coalesce="false"
       step="1" />
    <inkscape:path-effect
       effect="powerstroke"
       id="path-effect18635"
       is_visible="true"
       lpeversion="1"
       offset_points="2.2367469,0.28850426"
       not_jump="true"
       sort_points="true"
       interpolator_type="CentripetalCatmullRom"
       interpolator_beta="0.75"
       start_linecap_type="round"
       linejoin_type="spiro"
       miter_limit="4"
       scale_width="1"
       end_linecap_type="round" />
    <inkscape:path-effect
       effect="simplify"
       id="path-effect18633"
       is_visible="true"
       lpeversion="1"
       steps="1"
       threshold="0.0032025118"
       smooth_angles="0"
       helper_size="0"
       simplify_individual_paths="false"
       simplify_just_coalesce="false"
       step="1" />
    <inkscape:path-effect
       effect="powerstroke"
       id="path-effect18626"
       is_visible="true"
       lpeversion="1"
       offset_points="1.3048967,0.28850426"
       not_jump="true"
       sort_points="true"
       interpolator_type="CentripetalCatmullRom"
       interpolator_beta="0.75"
       start_linecap_type="round"
       linejoin_type="spiro"
       miter_limit="4"
       scale_width="1"
       end_linecap_type="round" />
    <inkscape:path-effect
       effect="simplify"
       id="path-effect18624"
       is_visible="true"
       lpeversion="1"
       steps="1"
       threshold="0.0032025118"
       smooth_angles="0"
       helper_size="0"
       simplify_individual_paths="false"
       simplify_just_coalesce="false"
       step="1" />
  </defs>
  <g
     inkscape:label="Layer 1"
     inkscape:groupmode="layer"
     id="layer1">
    <circle
       style="fill:#ffac74;stroke-width:0.13;stroke-dasharray:0.13, 0.13;stroke-opacity:0.882353;paint-order:stroke markers fill"
       id="path18545"
       cx="16.661816"
       cy="15.877473"
       r="13.240719" />
    <ellipse
       style="fill:#000000;stroke-width:0.13;stroke-dasharray:0.13, 0.13;stroke-opacity:0.882353;paint-order:stroke markers fill"
       id="path18547"
       cx="10.660819"
       cy="10.579747"
       rx="1.6374862"
       ry="1.7318109" />
    <ellipse
       style="fill:#000000;stroke-width:0.13;stroke-dasharray:0.13, 0.13;stroke-opacity:0.882353;paint-order:stroke markers fill"
       id="path18547-3"
       cx="21.407017"
       cy="11.251666"
       rx="1.6374862"
       ry="1.7318109" />
    <path
       d="m 8.0423963,22.038439 c 0.3906807,-0.533041 1.0419948,-1.388204 1.8387355,-2.190809 0.5910702,-0.595421 1.3264072,-1.229977 2.2131172,-1.748123 0.5184,-0.304033 1.117586,-0.56531 1.773637,-0.725882 0.595407,-0.145728 1.236322,-0.207955 1.891537,-0.139668 0.02863,0.003 0.05756,0.0017 0.08579,-0.0039 1.171679,-0.231349 2.428019,-0.193138 3.643574,0.133147 0.401596,0.107799 0.797243,0.246727 1.181455,0.41679 0.686064,0.303673 1.385796,0.729126 2.024862,1.304579 0.495189,0.436403 0.968115,0.991019 1.419844,1.697604 0.0096,0.015 0.02055,0.02908 0.03273,0.04206 0.285236,0.303846 0.51205,0.689716 0.634011,1.119552 0.114567,0.403778 0.134746,0.841257 0.02168,1.264961 -0.05762,0.241607 -0.152216,0.472832 -0.281477,0.68897 -0.126794,0.212012 -0.285908,0.407699 -0.470854,0.574546 -0.181901,0.1641 -0.387552,0.299166 -0.609553,0.394022 -0.218629,0.09341 -0.453324,0.147939 -0.697725,0.152792 -0.189074,0.0056 -0.371912,-0.01903 -0.550238,-0.06951 -0.176863,-0.05007 -0.349496,-0.125687 -0.515903,-0.222688 -0.330454,-0.192627 -0.630028,-0.466011 -0.878799,-0.773471 -0.0024,-0.003 -0.005,-0.006 -0.0075,-0.0089 -0.533156,-0.607005 -1.204159,-1.076339 -1.942255,-1.389493 -0.736722,-0.312571 -1.540217,-0.469526 -2.340409,-0.452733 -0.857767,0.0083 -1.70662,0.205436 -2.479714,0.556176 -0.778263,0.353086 -1.479266,0.861416 -2.044244,1.491121 -0.382325,0.348907 -0.859271,0.569242 -1.364179,0.673956 -0.524712,0.108821 -1.0725893,0.09153 -1.5724986,-0.02931 C 8.7155844,24.715263 8.3977585,24.566397 8.1483651,24.364961 8.0197363,24.261067 7.9113256,24.144958 7.8265404,24.01892 7.739446,23.88945 7.6770167,23.749196 7.64208,23.59863 7.607804,23.455291 7.5971222,23.31396 7.6033986,23.173738 c 0.00654,-0.146202 0.031596,-0.292343 0.069062,-0.43652 0.07986,-0.307319 0.217497,-0.609651 0.3519767,-0.877268 0.1216991,-0.220241 0.2471237,-0.382906 0.3457798,-0.495433 A 0.28850426,0.28850426 90 0 0 7.9363457,20.984129 c -0.121956,0.139104 -0.2740621,0.337116 -0.4199536,0.602213 -0.00171,0.0031 -0.00337,0.0063 -0.00496,0.0094 -0.1398867,0.278024 -0.301274,0.626303 -0.3974281,0.996327 -0.04543,0.174825 -0.078335,0.361523 -0.087032,0.555839 -0.00838,0.187163 0.00563,0.382932 0.053484,0.583013 0.051206,0.22071 0.1431587,0.425454 0.267326,0.610035 0.1203058,0.17884 0.2694509,0.336692 0.4380283,0.472853 0.3241422,0.261811 0.7228118,0.445334 1.1277649,0.541487 0.5773506,0.139562 1.2116264,0.16019 1.8241084,0.03317 0.595259,-0.123453 1.175772,-0.388207 1.648125,-0.823895 0.0069,-0.0063 0.0134,-0.01298 0.01961,-0.01993 0.511441,-0.572877 1.149943,-1.037769 1.861906,-1.360776 0.703231,-0.319044 1.473035,-0.497179 2.250169,-0.504704 0.720846,-0.01511 1.443487,0.125809 2.106198,0.406979 0.662002,0.280869 1.258787,0.699328 1.730365,1.234858 0.283224,0.349067 0.632779,0.671057 1.032989,0.904345 0.20349,0.118618 0.420685,0.214654 0.649309,0.279379 0.231095,0.06542 0.472658,0.0985 0.721654,0.09115 0.321039,-0.0064 0.628566,-0.07868 0.9102,-0.199015 0.285309,-0.121906 0.544195,-0.293077 0.769344,-0.496194 0.228891,-0.206491 0.424245,-0.447123 0.579556,-0.706819 0.158345,-0.264768 0.275858,-0.550597 0.345683,-0.843933 0.141201,-0.528729 0.113207,-1.073056 -0.026,-1.563658 -0.145393,-0.51242 -0.411865,-0.970853 -0.749884,-1.337057 -0.472346,-0.734996 -0.974509,-1.325368 -1.508,-1.795502 -0.687191,-0.618811 -1.439967,-1.075967 -2.175116,-1.401365 -0.411879,-0.18231 -0.835626,-0.331075 -1.265412,-0.44644 -1.285209,-0.344982 -2.615347,-0.389639 -3.862508,-0.150207 -0.714443,-0.0689 -1.407536,0.0014 -2.045161,0.157454 -0.716947,0.175475 -1.367889,0.459911 -1.927971,0.788391 -0.942417,0.550697 -1.716997,1.22094 -2.3311072,1.839571 -0.8272352,0.833324 -1.4985792,1.715852 -1.8946281,2.256219 a 0.28850426,0.28850426 90 0 0 0.4653926,0.341098 z"
       id="path-1"
       inkscape:path-effect="#path-effect18640;#path-effect18642"
       inkscape:original-d="m 7.8097,21.86789 c 1.8566894,-2.550054 4.552068,-5.252334 7.97963,-4.920883 3.305977,-0.637834 6.772873,0.765016 8.540081,3.648524 2.465246,2.660436 -1.059378,6.626773 -3.652925,3.656729 -2.147171,-2.546459 -6.079273,-2.396674 -8.327636,-0.066 -1.605999,1.855827 -6.0627459,1.073021 -4.82064,-1.918681 0.1392521,-0.398174 0.3463601,-0.775316 0.6250714,-1.093256"
       style="fill:#000000;fill-rule:nonzero;stroke:none;stroke-width:1px;stroke-linecap:butt;stroke-linejoin:miter;stroke-opacity:1" />
    <path
       d="m 12.464315,24.083773 c -0.0192,-0.248109 -0.03373,-0.707947 0.09138,-1.219846 0.08215,-0.336094 0.23149,-0.722674 0.503557,-1.0752 0.0564,-0.07469 0.118339,-0.147168 0.18873,-0.219148 0.136369,-0.13945 0.327353,-0.300329 0.5914,-0.454234 0.01143,-0.0056 0.02371,-0.01223 0.03631,-0.02004 0.01925,-0.01194 0.04417,-0.02968 0.06879,-0.05508 0.02458,-0.02537 0.05221,-0.06189 0.07091,-0.110934 0.0092,-0.02421 0.0157,-0.05002 0.01882,-0.07695 0.0031,-0.02666 0.0027,-0.05246 -4.2e-4,-0.0768 -0.006,-0.0477 -0.02173,-0.08571 -0.03587,-0.11221 -0.01373,-0.02574 -0.02847,-0.04521 -0.03868,-0.05762 -0.0213,-0.02588 -0.0335,-0.03612 -0.03703,-0.03957 -0.0034,-0.0034 0.0017,-2.92e-4 0.01676,0.02018 0.0069,0.0094 0.01754,0.02531 0.02727,0.0471 0.0098,0.02203 0.0196,0.05203 0.02269,0.08855 0.0031,0.0371 -0.0012,0.07483 -0.01304,0.110627 -0.01142,0.03453 -0.02787,0.06141 -0.04303,0.08081 -0.01468,0.01879 -0.02881,0.03145 -0.03822,0.03897 -0.0094,0.0075 -0.01661,0.01189 -0.01961,0.01363 l 0.04955,-0.03582 c 0.07188,-0.06396 0.160215,-0.119609 0.27248,-0.17621 0.115372,-0.05817 0.215576,-0.0987 0.35767,-0.163565 0.116261,-0.05032 0.236161,-0.09719 0.355405,-0.130546 0.115585,-0.03233 0.227882,-0.05119 0.338562,-0.05131 0.242656,-0.0079 0.473181,0.01081 0.735726,0.02768 0.249205,0.01601 0.520905,0.02962 0.798123,0.0019 0.231958,-0.01264 0.430821,-0.03156 0.634483,-0.02581 0.09926,0.0028 0.192039,0.01158 0.279308,0.02884 0.08733,0.01727 0.168565,0.04292 0.244689,0.07921 0.0035,0.0017 0.0071,0.0033 0.01073,0.0049 0.65204,0.280236 1.249196,0.627218 1.765366,1.048708 0.123968,0.12956 0.227116,0.281024 0.3206,0.444634 0.100926,0.176633 0.190762,0.367743 0.28162,0.555428 0.138128,0.305129 0.239204,0.521771 0.345621,0.776154 0.0091,0.03104 0.01599,0.06595 0.02203,0.10601 0.0075,0.04945 0.01283,0.10156 0.01981,0.158748 0.0079,0.06446 0.01712,0.129355 0.03227,0.195942 0.0183,0.08045 0.04328,0.154474 0.07743,0.224399 a 0.30242715,0.30242715 90 0 0 0.543496,-0.265446 c -0.01087,-0.02225 -0.02162,-0.05125 -0.03114,-0.0931 -0.0083,-0.03661 -0.01465,-0.07765 -0.02166,-0.135065 -0.0051,-0.04179 -0.01299,-0.115114 -0.0221,-0.175603 -0.0091,-0.06063 -0.0228,-0.13395 -0.04715,-0.210431 -0.0027,-0.0083 -0.0057,-0.01656 -0.009,-0.02464 -0.113116,-0.271341 -0.220965,-0.502498 -0.361879,-0.813539 -0.08912,-0.184326 -0.190233,-0.399586 -0.304135,-0.598928 -0.111097,-0.194434 -0.246722,-0.396955 -0.424192,-0.578701 -0.0077,-0.0079 -0.01589,-0.0154 -0.02444,-0.02242 -0.568961,-0.467266 -1.219907,-0.844899 -1.918522,-1.145631 -0.126046,-0.05946 -0.254428,-0.0987 -0.382055,-0.123942 -0.128441,-0.0254 -0.256071,-0.03661 -0.379596,-0.04009 -0.238772,-0.0067 -0.488398,0.01593 -0.691179,0.02683 -0.0049,2.62e-4 -0.0098,6.43e-4 -0.01461,0.0011 -0.225124,0.02308 -0.455247,0.01296 -0.70509,-0.0031 -0.246779,-0.01585 -0.514775,-0.03775 -0.784878,-0.02876 -0.169143,1.4e-5 -0.337313,0.03047 -0.491124,0.0735 -0.157339,0.04401 -0.305787,0.103006 -0.438304,0.16043 -0.120958,0.05515 -0.255894,0.111428 -0.384134,0.176083 -0.131774,0.06644 -0.263257,0.14478 -0.383437,0.247986 -0.008,0.0055 -0.01614,0.01148 -0.02429,0.01799 -0.01902,0.0152 -0.04056,0.03525 -0.0608,0.06115 -0.02078,0.02659 -0.04096,0.06039 -0.05459,0.101609 -0.01408,0.04255 -0.01909,0.08679 -0.01542,0.130199 0.0036,0.04289 0.01517,0.07905 0.02767,0.107064 0.01242,0.02784 0.02664,0.04958 0.03778,0.06472 0.02062,0.02804 0.04289,0.04931 0.04707,0.0534 0.01173,0.0115 0.0022,0.0026 -0.0065,-0.0079 -0.0059,-0.0071 -0.01695,-0.02144 -0.02792,-0.04199 -0.01133,-0.02124 -0.02516,-0.05402 -0.03054,-0.09648 -0.0027,-0.02169 -0.0031,-0.04485 -3.62e-4,-0.06885 0.0028,-0.02425 0.0086,-0.04738 0.01684,-0.06891 0.01662,-0.0436 0.04065,-0.07466 0.0599,-0.09452 0.01917,-0.01978 0.03685,-0.03186 0.04686,-0.03807 0.01063,-0.0066 0.0184,-0.01011 0.02096,-0.01122 l -0.03022,0.01527 c -0.320249,0.18502 -0.557822,0.383111 -0.732173,0.561401 -0.08835,0.09035 -0.167087,0.18235 -0.237069,0.275049 -0.335084,0.434153 -0.514051,0.904667 -0.610329,1.298586 -0.146451,0.599196 -0.128524,1.130379 -0.106872,1.410126 a 0.30242715,0.30242715 90 0 0 0.60305,-0.04667 z"
       id="path-1-0"
       inkscape:path-effect="#path-effect18647;#path-effect18649"
       inkscape:original-d="m 12.16279,24.10711 c -0.108275,-1.478745 0.469731,-2.626742 1.448552,-3.20468 0.314907,-0.185935 -0.07421,-0.03522 0.146805,-0.231 0.185989,-0.164752 0.885587,-0.462953 1.12654,-0.519753 0.458028,-0.107966 1.043928,0 1.514092,0 0.475886,0 1.140055,-0.12565 1.581705,0.05755 0.645345,0.267689 1.2788,0.617017 1.882403,1.090461 0.423021,0.331804 0.838561,1.409057 1.050735,1.855098 0.115987,0.243834 0.06054,0.514786 0.174605,0.74778"
       style="fill:#000000;fill-rule:nonzero;stroke:none;stroke-width:1.04826px;stroke-linecap:butt;stroke-linejoin:miter;stroke-opacity:1" />
    <path
       d="m 14.086906,21.988717 c 0.246523,0.04407 0.793231,0.158598 1.415933,0.273592 0.223831,0.0417 0.455748,0.08484 0.687109,0.126206 0.449245,0.08032 1.112953,0.194102 1.789747,0.260242 0.115382,0.0086 0.262346,0.02168 0.397962,0.02567 0.133488,0.0039 0.279471,4.58e-4 0.429687,-0.02487 0.0802,-0.01134 0.151359,-0.0403 0.211519,-0.07865 0.05843,-0.03725 0.105254,-0.08247 0.141865,-0.128031 0.13714,-0.144953 0.248196,-0.228887 0.323563,-0.279366 a 0.28850426,0.28850426 90 0 0 -0.321092,-0.479414 c -0.109588,0.0734 -0.258011,0.187601 -0.431975,0.373225 -0.0069,0.0073 -0.01333,0.01499 -0.01939,0.02298 -0.0035,0.0046 -0.0058,0.0058 -0.0031,0.0041 0.0029,-0.0019 0.0095,-0.0051 0.01859,-0.0062 l -0.01241,0.0019 c -0.1004,0.01726 -0.206485,0.02102 -0.320228,0.01767 -0.118611,-0.0035 -0.24375,-0.01474 -0.365559,-0.02376 -0.645779,-0.06319 -1.290459,-0.173449 -1.737571,-0.253391 -0.22901,-0.04095 -0.458964,-0.08372 -0.683441,-0.125538 -0.608167,-0.11231 -1.165862,-0.2289 -1.419615,-0.274263 a 0.28850426,0.28850426 90 0 0 -0.101542,0.568004 z"
       id="path-1-7"
       inkscape:path-effect="#path-effect18654;#path-effect18656"
       inkscape:original-d="m 14.137677,21.704715 c 0.379034,0.0538 4.436899,0.950054 4.75582,0.601784 0.150002,-0.163807 0.269974,-0.27383 0.430248,-0.382691"
       style="fill:#000000;fill-rule:nonzero;stroke:none;stroke-width:1px;stroke-linecap:butt;stroke-linejoin:miter;stroke-opacity:1" />
    <path
       d="m 13.87065,14.329589 c 0.08713,0.125335 0.272374,0.382097 0.528528,0.628569 0.178623,0.171872 0.406467,0.35386 0.686711,0.496297 0.08774,0.04543 0.180588,0.08671 0.276511,0.123111 0.152613,0.05792 0.327008,0.108808 0.527839,0.147017 0.251108,0.04777 0.521217,0.07158 0.817915,0.07427 0.004,3.6e-5 0.008,-10e-6 0.01193,-1.38e-4 0.09135,-0.003 0.171321,0.0068 0.308133,0.01763 0.112482,0.0089 0.259375,0.01745 0.412937,-0.01009 0.0048,-8.68e-4 0.0097,-0.0019 0.01446,-0.003 0.07588,-0.01765 0.144623,-0.04584 0.206593,-0.08009 0.06113,-0.03379 0.115139,-0.07319 0.162741,-0.113492 0.09292,-0.07867 0.171356,-0.169876 0.229893,-0.238099 0.06868,-0.0786 0.124356,-0.151186 0.174014,-0.205608 0.05461,-0.05985 0.09712,-0.09462 0.137368,-0.116427 0.008,-0.004 0.01186,-0.0027 0.01093,-0.0027 a 0.28850426,0.28850426 90 0 0 0.0022,-0.577004 c -0.0715,-2.76e-4 -0.17167,0.01304 -0.281497,0.06898 -0.124844,0.06752 -0.217258,0.152775 -0.295267,0.238269 -0.07193,0.07883 -0.131055,0.156248 -0.183998,0.216848 -0.06302,0.07343 -0.113611,0.13062 -0.166511,0.175406 -0.02515,0.02129 -0.04798,0.03723 -0.06905,0.04888 -0.01849,0.01022 -0.03558,0.01712 -0.05189,0.0215 -0.07339,0.01197 -0.15482,0.0095 -0.257523,0.0014 -0.108331,-0.0086 -0.234829,-0.02296 -0.365813,-0.01932 -0.266894,-0.0027 -0.500133,-0.0242 -0.709748,-0.06407 -0.168292,-0.03202 -0.310242,-0.07383 -0.430956,-0.119644 -0.07607,-0.02887 -0.148655,-0.06121 -0.217891,-0.09705 -0.218392,-0.111009 -0.400494,-0.254842 -0.549983,-0.398681 -0.215392,-0.207252 -0.375229,-0.427633 -0.45482,-0.542129 a 0.28850426,0.28850426 90 0 0 -0.473782,0.329348 z"
       id="path-1-4"
       inkscape:path-effect="#path-effect18682;#path-effect18684"
       inkscape:original-d="m 14.107541,14.164915 c 0.716426,1.025177 1.483953,1.345817 2.672384,1.345817 0.180844,0 0.479195,0.05801 0.653276,0 0.386648,-0.128853 0.58915,-0.752404 0.945066,-0.752404"
       style="fill:#000000;fill-rule:nonzero;stroke:none;stroke-width:1px;stroke-linecap:butt;stroke-linejoin:miter;stroke-opacity:1" />
    <path
       style="fill:#ff2a2a;stroke-width:0.107152;stroke-dasharray:0.107152, 0.107152;stroke-opacity:0.882353;paint-order:stroke markers fill"
       d="m 77.404192,89.171033 c -0.897485,-0.936897 -2.969183,-2.437882 -4.412733,-3.197108 l -1.04737,-0.550858 1.101783,-0.948837 c 0.875327,-0.753817 1.101805,-1.085548 1.10189,-1.613987 2.18e-4,-1.464293 -1.136619,-1.585546 -2.678221,-0.285649 l -1.070783,0.902898 -1.778318,-0.139429 c -2.454659,-0.192458 -5.345343,-0.644055 -10.762522,-1.681375 -5.177276,-0.991382 -5.518246,-0.971418 -5.518246,0.323102 0,0.400901 0.124381,0.832137 0.276401,0.958303 0.152021,0.126166 1.256061,0.415955 2.453422,0.643976 l 2.177021,0.414584 -1.526573,0.500774 c -3.046408,0.999339 -6.328957,2.772718 -8.006118,4.325262 l -0.59133,0.547393 0.115346,-0.850566 c 0.528201,-3.894986 1.789141,-6.236178 4.338549,-8.055397 0.755424,-0.53906 1.431131,-1.130297 1.501571,-1.31386 0.07044,-0.183563 0.791839,-0.648169 1.603109,-1.032456 l 1.475037,-0.698705 h 5.599241 5.599242 l 2.284391,1.169584 c 1.256413,0.643271 2.956641,1.673709 3.778281,2.289861 1.447294,1.085331 1.542491,1.217393 3.051791,4.233607 1.270277,2.538548 1.963686,4.466924 1.721997,4.788874 -0.02115,0.02819 -0.37525,-0.300307 -0.786858,-0.729991 z"
       id="path18966"
       transform="scale(0.26458333)" />
    <path
       style="fill:#000000;stroke-width:0.107152;stroke-dasharray:0.107152, 0.107152;stroke-opacity:0.882353;paint-order:stroke markers fill"
       d="m 84.448332,94.307261 c -0.511917,-0.100915 -1.507069,-0.490654 -2.21145,-0.866084 -1.410329,-0.751698 -2.739692,-1.955792 -2.159264,-1.955792 0.754919,0 0.904966,-0.562014 0.626774,-2.347626 -0.208783,-1.340116 -0.591848,-2.359357 -1.863428,-4.95812 -1.007885,-2.059846 -1.902512,-3.576903 -2.415859,-4.096674 -1.868985,-1.892376 -7.002501,-4.764935 -9.183971,-5.13907 -0.579291,-0.09935 -3.359474,-0.165884 -6.178183,-0.147849 l -5.124926,0.03279 -1.659264,0.702904 c -2.091727,0.886106 -3.683745,1.888195 -3.683745,2.318718 0,0.182559 -0.09023,0.331926 -0.200506,0.331926 -0.11028,0 -0.765411,0.515219 -1.455848,1.144931 -2.680178,2.444451 -3.958437,5.442773 -4.199039,9.84939 l -0.141861,2.598163 -1.311494,0.718901 c -2.039825,1.118137 -3.71215,1.46 -6.535308,1.335979 -3.15066,-0.13841 -4.552599,-0.663877 -6.239882,-2.338803 -0.981395,-0.974207 -1.273105,-1.432909 -1.49229,-2.346575 -0.457442,-1.906834 0.156801,-4.3051 1.519131,-5.931336 0.458964,-0.547873 1.615402,-1.977502 2.569861,-3.176953 6.075368,-7.6348 12.644273,-12.503559 19.171407,-14.209517 1.658954,-0.433591 2.785781,-0.572666 5.07637,-0.626536 1.619259,-0.03808 3.775695,-0.174874 4.792083,-0.303982 10.685424,-1.357341 21.565805,3.414202 27.868416,12.221566 0.688186,0.961683 1.616713,2.257096 2.063393,2.878696 1.437492,2.000414 2.096165,4.701453 1.691154,6.934953 -0.657587,3.626383 -3.255331,6.54553 -6.50566,7.31057 -1.37155,0.322827 -1.496217,0.325723 -2.816611,0.06543 z"
       id="path18998"
       transform="scale(0.26458333)" />
  </g>
</svg>
